<mxfile host="www.draw.io" modified="2020-05-11T08:23:17.670Z" agent="5.0 (Windows NT 10.0; Win64; x64) AppleWebKit/537.36 (KHTML, like Gecko) Chrome/81.0.4044.138 Safari/537.36" etag="Ca1IIgmL3qFZoj9LFuAE" version="12.9.13" type="github">
  <diagram id="XbEey4qihFn1aIaw0n4t" name="Page-1">
    <mxGraphModel dx="854" dy="468" grid="1" gridSize="10" guides="1" tooltips="1" connect="1" arrows="1" fold="1" page="1" pageScale="1" pageWidth="850" pageHeight="1100" math="0" shadow="0">
      <root>
        <mxCell id="0" />
        <mxCell id="1" parent="0" />
        <mxCell id="4VkMX9U7Ixo-YDW_MBsD-2" value="" style="edgeStyle=orthogonalEdgeStyle;rounded=0;orthogonalLoop=1;jettySize=auto;html=1;" edge="1" parent="1" source="oMd4Auz60f5KPNyBKYmL-1" target="4VkMX9U7Ixo-YDW_MBsD-1">
          <mxGeometry relative="1" as="geometry" />
        </mxCell>
        <mxCell id="oMd4Auz60f5KPNyBKYmL-1" value="Start" style="rounded=1;whiteSpace=wrap;html=1;" parent="1" vertex="1">
          <mxGeometry x="40" y="80" width="80" height="40" as="geometry" />
        </mxCell>
        <mxCell id="4VkMX9U7Ixo-YDW_MBsD-4" value="" style="edgeStyle=orthogonalEdgeStyle;rounded=0;orthogonalLoop=1;jettySize=auto;html=1;" edge="1" parent="1" source="4VkMX9U7Ixo-YDW_MBsD-1" target="4VkMX9U7Ixo-YDW_MBsD-3">
          <mxGeometry relative="1" as="geometry" />
        </mxCell>
        <mxCell id="4VkMX9U7Ixo-YDW_MBsD-1" value="Input data.csv -&amp;gt;&lt;br&gt;UNC Path, Permission type,&lt;br&gt;List of users" style="shape=parallelogram;perimeter=parallelogramPerimeter;whiteSpace=wrap;html=1;" vertex="1" parent="1">
          <mxGeometry x="160" y="60" width="200" height="80" as="geometry" />
        </mxCell>
        <mxCell id="4VkMX9U7Ixo-YDW_MBsD-6" value="" style="edgeStyle=orthogonalEdgeStyle;rounded=0;orthogonalLoop=1;jettySize=auto;html=1;" edge="1" parent="1" source="4VkMX9U7Ixo-YDW_MBsD-3" target="4VkMX9U7Ixo-YDW_MBsD-5">
          <mxGeometry relative="1" as="geometry" />
        </mxCell>
        <mxCell id="4VkMX9U7Ixo-YDW_MBsD-3" value="For each share, target the Insert User&lt;br&gt;API to add users to DB" style="rounded=0;whiteSpace=wrap;html=1;" vertex="1" parent="1">
          <mxGeometry x="400" y="70" width="120" height="60" as="geometry" />
        </mxCell>
        <mxCell id="4VkMX9U7Ixo-YDW_MBsD-5" value="For each share, target the Insert User&lt;br&gt;API to add users to DB" style="rounded=0;whiteSpace=wrap;html=1;" vertex="1" parent="1">
          <mxGeometry x="560" y="70" width="120" height="60" as="geometry" />
        </mxCell>
      </root>
    </mxGraphModel>
  </diagram>
</mxfile>
